<?xml version="1.0" standalone="no"?>
<!DOCTYPE svg PUBLIC "-//W3C//DTD SVG 20010904//EN"
 "http://www.w3.org/TR/2001/REC-SVG-20010904/DTD/svg10.dtd">
<svg version="1.0" xmlns="http://www.w3.org/2000/svg"
 width="204.000000pt" height="204.000000pt" viewBox="0 0 204.000000 204.000000"
 preserveAspectRatio="xMidYMid meet">

<g transform="translate(0.000000,204.000000) scale(0.100000,-0.100000)"
fill="#000000" stroke="none">
<path d="M753 1893 c-18 -9 -33 -20 -33 -25 0 -5 11 -26 25 -47 38 -56 135
-311 119 -311 -3 0 -15 7 -27 15 -80 52 -240 76 -353 52 -200 -43 -350 -188
-390 -379 -51 -240 99 -575 394 -881 127 -131 182 -173 249 -193 50 -15 60
-15 118 0 95 24 166 21 225 -9 116 -59 271 -9 423 134 120 114 206 257 266
443 96 300 79 581 -45 755 l-34 48 42 35 c73 59 127 122 160 188 28 54 31 64
18 73 -28 19 -274 4 -383 -25 -117 -30 -279 -107 -370 -176 -54 -39 -145 -90
-163 -90 -2 0 -4 9 -4 19 0 31 -68 257 -91 303 -44 88 -79 104 -146 71z"/>
</g>
</svg>
